.
 
http://www.scenetime.com    -   SceneTime [ We been having it ] !!!


How come you press harder on a remote control when you know the battery is dead? so you better seed to get speed ;)

        Seed back for speed


...................................NFO:.................................................[pre][img]http://img193.imageshack.us/img193/7251/largowinch2cover.png[/img]   
            
*******************************************************************************
             The.Burma.Conspiracy.2011.480p.BRRip.XviD.AC3-PRESTiGE
*******************************************************************************

-------------------------------------------------------------------------------
                              General Information
-------------------------------------------------------------------------------

TiTLE............: The.Burma.Conspiracy.2011.480p.BRRip.XviD.AC3-PRESTiGE a.k.a ( Largo Winch 2 2011 )

iMDB.............: http://www.imdb.com/title/tt1322333/

GENRE............: Action | Adventure | Thriller 

LANGUAGE.........: English

FORMAT...........: AVi

SOURCE...........: 720p.BluRay.x264-HD4U MANY THANKS!!!

FiLE SiZE........: 2.23 GB

SAMPLE iNCLUDED..: YES

SUBS.............: English Subs (if needed)

DURATiON.........: 1h 58mn

ENCODED by.......: [color=maroon]akosipalos[/color]



ViDEO iNFO:

ID                               : 0
Format                           : MPEG-4 Visual
Codec ID                         : XVID
Codec ID/Hint                    : XviD
Duration                         : 1h 58mn
Bit rate                         : 920 Kbps
Width                            : 720 pixels
Height                           : 304 pixels
Display aspect ratio             : 2.35:1
Frame rate                       : 23.976 fps
Color space                      : YUV
Chroma subsampling               : 4:2:0
Compression mode                 : Lossy
Bits/(Pixel*Frame)               : 0.175
Stream size                      : 780 MiB (34%)


AUDiO iNFO:

ID                               : 1
Format                           : AC-3
Format/Info                      : Audio Coding 3
Codec ID                         : 2000
Duration                         : 1h 58mn
Bit rate mode                    : Constant
Bit rate                         : 640 Kbps
Channel(s)                       : 6 channels
Sampling rate                    : 48.0 KHz
Compression mode                 : Lossy
Stream size                      : 240 MiB (11%)
Alignment                        : Aligned on interleaves
Interleave, duration             : 64 ms (1.53 video frames)


-------------------------------------------------------------------------------
                                 PLOT:
-------------------------------------------------------------------------------


Largo Winch, the newly appointed CEO of the W Group, is accused of crimes against humanity on the very day he announces his intention to sell his corporation and use the proceeds to create a humanitarian foundation. 


-------------------------------------------------------------------------------
                                 CAST:
-------------------------------------------------------------------------------


Tomer Sisley       ...  Largo Winch

Sharon Stone       ...  Diane Francken

Ulrich Tukur       ...  Dwight Cochrane

Olivier Barthelemy ...  Simon Ovronnaz


-------------------------------------------------------------------------------
                               SCREENS:
-------------------------------------------------------------------------------


[img]http://i824.photobucket.com/albums/zz161/akosipalos/burma1.png[/img]

[img]http://i824.photobucket.com/albums/zz161/akosipalos/burma2.png[/img]

[img]http://i824.photobucket.com/albums/zz161/akosipalos/burma3.png[/img]

[img]http://i824.photobucket.com/albums/zz161/akosipalos/burma4.png[/img]

[img]http://i824.photobucket.com/albums/zz161/akosipalos/burma5.png[/img]



-------------------------------------------------------------------------------
                             Release Notes
-------------------------------------------------------------------------------

WE DONT RELEASE EVERYTHING TO OTHERS SITES YOU WANT MORE OF OUR STUFF COME FIND US AT .......

WE ARE LOOKING FOR SUPPLIERS BLURAY CAM R5 PRE RETAIL DVD GOT SOMETHING WE MIGHT LIKE WHEN YOU FIND US TELL US.......



ENCODER'S - ANYTHING AT ALL EMAIL US AT..... prestige@hushmail.me

** ** ** ** ** ** ** ** **

PRESTiGE is the level of respect at which one is regarded by others....RIzE Above Or Sink Below...


-------------------------------------------------------------------------------
                                 GREETZ:
-------------------------------------------------------------------------------


Twisted ,bigguy, Selina, 6of1, CTFX, HiTM4N, bedsy, mtyy, whitestag13, paranoid53, PA4U2C, phules, tac, BMB, Flawl3ss, smelise, fifer, akosipalos, DiLLoN, IMAGINE,"the squad" , floridajoe and To All Encoders Past And Present......


-------------------------------------------------------------------------------
Generated with Cool NFO Creator - http://fly.to/coolbeans
-------------------------------------------------------------------------------
[/pre]